<?xml version="1.0" encoding="utf-8"?><svg xmlns="http://www.w3.org/2000/svg" xmlns:xlink="http://www.w3.org/1999/xlink"><symbol viewBox="0 0 80 80" id="email" xmlns="http://www.w3.org/2000/svg"><path fill="#c4c4c4" d="M80 40c0 22.091-17.909 40-40 40S0 62.091 0 40 17.909 0 40 0s40 17.909 40 40z"/><path d="M59.14 21.64A5.867 5.867 0 0165 27.5v25a5.866 5.866 0 01-5.86 5.859H20.86a5.866 5.866 0 01-5.86-5.86v-25a5.867 5.867 0 015.86-5.859zm1.954 5.86a1.955 1.955 0 00-1.953-1.954H20.859a1.955 1.955 0 00-1.953 1.953v25c0 1.077.876 1.953 1.953 1.953h38.282a1.955 1.955 0 001.953-1.953z"/><path d="M60.766 24.08L40.004 39.523 19.24 24.08l-2.331 3.134 23.094 17.177 23.093-17.177z"/></symbol><symbol viewBox="0 0 80 80" id="email_hover" xmlns="http://www.w3.org/2000/svg"><path fill="#333" d="M80 40c0 22.091-17.909 40-40 40S0 62.091 0 40 17.909 0 40 0s40 17.909 40 40z"/><path fill="#c4c4c4" d="M59.14 21.64A5.867 5.867 0 0165 27.5v25a5.866 5.866 0 01-5.86 5.859H20.86a5.866 5.866 0 01-5.86-5.86v-25a5.867 5.867 0 015.86-5.859zm1.954 5.86a1.955 1.955 0 00-1.953-1.954H20.859a1.955 1.955 0 00-1.953 1.953v25c0 1.077.876 1.953 1.953 1.953h38.282a1.955 1.955 0 001.953-1.953z"/><path fill="#c4c4c4" d="M60.766 24.08L40.004 39.523 19.24 24.08l-2.331 3.134 23.094 17.177 23.093-17.177z"/></symbol><symbol viewBox="0 0 80 80" id="insta" xmlns="http://www.w3.org/2000/svg"><path fill="#c4c4c4" d="M80 40c0 22.091-17.909 40-40 40S0 62.091 0 40 17.909 0 40 0s40 17.909 40 40z"/><path d="M50.476 15C58.485 15 65 21.516 65 29.524v20.952C65 58.484 58.484 65 50.476 65H29.524C21.516 65 15 58.484 15 50.476V29.524C15 21.516 21.516 15 29.524 15zm10.618 14.524c0-5.855-4.763-10.618-10.618-10.618H29.524c-5.855 0-10.618 4.763-10.618 10.618v20.952c0 5.855 4.763 10.618 10.618 10.618h20.952c5.855 0 10.618-4.763 10.618-10.618z"/><path d="M53.473 39.997c0 7.43-6.045 13.476-13.476 13.476-7.431 0-13.477-6.045-13.477-13.476 0-7.431 6.046-13.477 13.477-13.477 7.43 0 13.476 6.046 13.476 13.477zm-3.906 0c0-5.277-4.293-9.57-9.57-9.57s-9.57 4.293-9.57 9.57 4.293 9.57 9.57 9.57 9.57-4.293 9.57-9.57zm4.106-11.711a1.953 1.953 0 100-3.906 1.953 1.953 0 000 3.906z"/></symbol><symbol viewBox="0 0 80 80" id="insta_hover" xmlns="http://www.w3.org/2000/svg"><path fill="#333" d="M80 40c0 22.091-17.909 40-40 40S0 62.091 0 40 17.909 0 40 0s40 17.909 40 40z"/><path fill="#c4c4c4" d="M50.476 15C58.485 15 65 21.516 65 29.524v20.952C65 58.484 58.484 65 50.476 65H29.524C21.516 65 15 58.484 15 50.476V29.524C15 21.516 21.516 15 29.524 15zm10.618 14.524c0-5.855-4.763-10.618-10.618-10.618H29.524c-5.855 0-10.618 4.763-10.618 10.618v20.952c0 5.855 4.763 10.618 10.618 10.618h20.952c5.855 0 10.618-4.763 10.618-10.618z"/><path fill="#c4c4c4" d="M53.473 39.997c0 7.43-6.045 13.476-13.476 13.476-7.431 0-13.477-6.045-13.477-13.476 0-7.431 6.046-13.477 13.477-13.477 7.43 0 13.476 6.046 13.476 13.477zm-3.906 0c0-5.277-4.293-9.57-9.57-9.57s-9.57 4.293-9.57 9.57 4.293 9.57 9.57 9.57 9.57-4.293 9.57-9.57zm4.106-11.711a1.953 1.953 0 100-3.906 1.953 1.953 0 000 3.906z"/></symbol><symbol viewBox="0 0 86 86" id="tlg" xmlns="http://www.w3.org/2000/svg"><path d="M83 43c0 22.091-17.909 40-40 40S3 65.091 3 43 20.909 3 43 3s40 17.909 40 40z" mask="url(#ezcdb)"/><path fill-opacity=".25" d="M83 43c0 22.091-17.909 40-40 40S3 65.091 3 43 20.909 3 43 3s40 17.909 40 40z"/><path fill="#c4c4c4" d="M83 43c0 22.091-17.909 40-40 40S3 65.091 3 43 20.909 3 43 3s40 17.909 40 40z"/><path d="M67.886 26.432L60.95 60.674c-.423 2.089-1.875 3.439-3.7 3.439-.933 0-1.889-.36-2.764-1.038l-.021-.017-.075-.06-.003-.002-7.876-6.342-5.43 5c-.919.845-1.968 1.293-3.035 1.293-1.692 0-3.145-1.15-3.793-3.001l-4.747-13.577-8.78-2.512a1.593 1.593 0 01-.04-.012c-2.292-.73-2.667-1.996-2.686-2.687-.02-.69.283-1.977 2.529-2.834l42.324-16.156a5.048 5.048 0 011.798-.358c1.05 0 1.965.411 2.576 1.158.703.86.936 2.09.658 3.464zm-31.44 30.904l2.033-8.238c.06-.244.183-.469.356-.652L49.38 37.239l-16.937 8.653zm7.759-2.54l-3.432-2.764-1.887 7.642c.07-.053.141-.11.211-.175zm20.81-28.946c.122-.608.023-.932-.055-1.027-.059-.073-.218-.083-.308-.083-.146 0-.396.028-.753.165L21.588 41.056l8.898 2.546 25.085-12.815a1.465 1.465 0 011.733 2.308L42.053 49.301l5.31 4.277c.002 0 .003.002.004.003l8.925 7.186c.348.268.689.416.96.416.548 0 .76-.763.828-1.09z"/></symbol><symbol viewBox="0 0 86 86" id="tlg_hover" xmlns="http://www.w3.org/2000/svg"><defs><filter id="fa" width="108" height="108" x="-11" y="-11" filterUnits="userSpaceOnUse"><feOffset in="SourceGraphic" result="FeOffset1115Out"/><feGaussianBlur in="FeOffset1115Out" result="FeGaussianBlur1116Out" stdDeviation="1.6 1.6"/></filter><mask id="fb" width="2" height="2" x="-1" y="-1"><path fill="#fff" d="M3 3h80v80H3z"/><path d="M83 43c0 22.091-17.909 40-40 40S3 65.091 3 43 20.909 3 43 3s40 17.909 40 40z"/></mask></defs><g filter="url(#fa)"><path fill="none" d="M83 43c0 22.091-17.909 40-40 40S3 65.091 3 43 20.909 3 43 3s40 17.909 40 40z" mask="url(#fb)"/><path fill="#c4c4c4" fill-opacity=".25" d="M83 43c0 22.091-17.909 40-40 40S3 65.091 3 43 20.909 3 43 3s40 17.909 40 40z"/></g><path fill="#333" d="M83 43c0 22.091-17.909 40-40 40S3 65.091 3 43 20.909 3 43 3s40 17.909 40 40z"/><path fill="#c4c4c4" d="M67.886 26.432L60.95 60.674c-.423 2.089-1.875 3.439-3.7 3.439-.933 0-1.889-.36-2.764-1.038l-.021-.017-.075-.06-.003-.002-7.876-6.342-5.43 5c-.919.845-1.968 1.293-3.035 1.293-1.692 0-3.145-1.15-3.793-3.001l-4.747-13.577-8.78-2.512a1.593 1.593 0 01-.04-.012c-2.292-.73-2.667-1.996-2.686-2.687-.02-.69.283-1.977 2.529-2.834l42.324-16.156a5.048 5.048 0 011.798-.358c1.05 0 1.965.411 2.576 1.158.703.86.936 2.09.658 3.464zm-31.44 30.904l2.033-8.238c.06-.244.183-.469.356-.652L49.38 37.239l-16.937 8.653zm7.759-2.54l-3.432-2.764-1.887 7.642c.07-.053.141-.11.211-.175zm20.81-28.946c.122-.608.023-.932-.055-1.027-.059-.073-.218-.083-.308-.083-.146 0-.396.028-.753.165L21.588 41.056l8.898 2.546 25.085-12.815a1.465 1.465 0 011.733 2.308L42.053 49.301l5.31 4.277c.002 0 .003.002.004.003l8.925 7.186c.348.268.689.416.96.416.548 0 .76-.763.828-1.09z"/></symbol><symbol viewBox="0 0 80 80" id="vk" xmlns="http://www.w3.org/2000/svg"><path fill="#c4c4c4" d="M80 40c0 22.091-17.909 40-40 40S0 62.091 0 40 17.909 0 40 0s40 17.909 40 40z"/><path d="M61.954 44.949c3.79 3.684 5.764 6.827 5.867 9.34l.07 1.68-9.745.001c-1.004 0-2.829-.256-3.824-.764-1.822-.93-2.97-2.35-4.08-3.723-.77-.952-1.497-1.85-2.412-2.535-.319-.238-.607-.358-.77-.321-.181.04-.512.315-.85.956-.228.435-.445.85-.608 1.352-.267.824-.392 1.911-.392 3.42v1.615H43.6c-8.017 0-13.97-2.972-18.758-8.647-4.335-5.137-7.574-12.29-11.104-21.448l-.847-2.194h13.085c.435 1.158.281.636 1.139 3.087.75 2.14 1.775 5.07 2.945 7.549 1.686 3.572 2.657 3.998 2.772 4.037.034-.027.7-.533.977-3.254.193-1.897.1-4.023-.08-5.287-.273-1.94-.607-2.332-1.614-2.671l-2.644-.892 2.092-1.85c.632-.558 1.92-1.193 6.304-1.148 5.064.054 6.88.756 7.377.836l.411 2.024c.252 1.242.147 2.978.025 4.989-.105 1.715-.212 3.488-.09 4.952.116 1.398.4 1.94.562 2.141l.077.024c.5-.213 1.916-1.418 4.075-5.254 2.979-5.29 3.685-8.396 3.732-8.524l13.526-.006.262 1.296c.487 2.427-1.878 5.844-5.54 10.779-1.144 1.541-2.224 2.997-2.763 3.946-.427.75-.559 1.252.01 2.016.486.613 1.924 2.016 2.394 2.45zm-3.746 7.791h5.88c-.585-1.197-1.814-2.98-4.365-5.46-.352-.328-2.05-1.95-2.737-2.827l-.019-.025c-1.232-1.636-1.43-3.49-.248-5.572.637-1.12 1.721-2.582 2.978-4.274 1.44-1.942 3.645-4.868 4.576-6.92-.657 0-6.247-.006-7.888-.003-.707 1.857-2.02 4.7-3.432 7.168-4.404 7.701-6.73 6.519-7.132 6.643l-1.04-.32c-.011-.007-.393-.183-.752-.512-2.045-1.87-1.802-5.863-1.567-9.734.097-1.602.198-3.258.044-4.1-1.7-.245-4.381-.388-6.384-.298.47.898.663 1.9.798 2.854.164 1.16.302 3.266.153 5.379-.189 2.68-.752 4.527-1.722 5.646-.68.785-1.556 1.2-2.532 1.2-1.956 0-3.66-1.722-5.528-5.583-1.304-2.696-2.41-5.857-3.218-8.166l-.326-.927H17.6c3.085 7.802 5.999 13.94 9.702 18.33 3.983 4.72 8.697 7.114 14.739 7.458.077-1.077.238-1.963.497-2.76.247-.762.552-1.344.82-1.859.955-1.807 2.154-2.412 2.993-2.601a3.49 3.49 0 01.77-.085c.723 0 1.633.219 2.635.967 1.24.926 2.13 2.027 2.99 3.092.98 1.212 1.827 2.26 3.038 2.878.385.196 1.706.423 2.398.412h.026z"/></symbol><symbol viewBox="0 0 80 80" id="vk_hover" xmlns="http://www.w3.org/2000/svg"><path fill="#333" d="M80 40c0 22.091-17.909 40-40 40S0 62.091 0 40 17.909 0 40 0s40 17.909 40 40z"/><path fill="#c4c4c4" d="M61.954 44.949c3.79 3.684 5.764 6.827 5.867 9.34l.07 1.68-9.745.001c-1.004 0-2.829-.256-3.824-.764-1.822-.93-2.97-2.35-4.08-3.723-.77-.952-1.497-1.85-2.412-2.535-.319-.238-.607-.358-.77-.321-.181.04-.512.315-.85.956-.228.435-.445.85-.608 1.352-.267.824-.392 1.911-.392 3.42v1.615H43.6c-8.017 0-13.97-2.972-18.758-8.647-4.335-5.137-7.574-12.29-11.104-21.448l-.847-2.194h13.085c.435 1.158.281.636 1.139 3.087.75 2.14 1.775 5.07 2.945 7.549 1.686 3.572 2.657 3.998 2.772 4.037.034-.027.7-.533.977-3.254.193-1.897.1-4.023-.08-5.287-.273-1.94-.607-2.332-1.614-2.671l-2.644-.892 2.092-1.85c.632-.558 1.92-1.193 6.304-1.148 5.064.054 6.88.756 7.377.836l.411 2.024c.252 1.242.147 2.978.025 4.989-.105 1.715-.212 3.488-.09 4.952.116 1.398.4 1.94.562 2.141l.077.024c.5-.213 1.916-1.418 4.075-5.254 2.979-5.29 3.685-8.396 3.732-8.524l13.526-.006.262 1.296c.487 2.427-1.878 5.844-5.54 10.779-1.144 1.541-2.224 2.997-2.763 3.946-.427.75-.559 1.252.01 2.016.486.613 1.924 2.016 2.394 2.45zm-3.746 7.791h5.88c-.585-1.197-1.814-2.98-4.365-5.46-.352-.328-2.05-1.95-2.737-2.827l-.019-.025c-1.232-1.636-1.43-3.49-.248-5.572.637-1.12 1.721-2.582 2.978-4.274 1.44-1.942 3.645-4.868 4.576-6.92-.657 0-6.247-.006-7.888-.003-.707 1.857-2.02 4.7-3.432 7.168-4.404 7.701-6.73 6.519-7.132 6.643l-1.04-.32c-.011-.007-.393-.183-.752-.512-2.045-1.87-1.802-5.863-1.567-9.734.097-1.602.198-3.258.044-4.1-1.7-.245-4.381-.388-6.384-.298.47.898.663 1.9.798 2.854.164 1.16.302 3.266.153 5.379-.189 2.68-.752 4.527-1.722 5.646-.68.785-1.556 1.2-2.532 1.2-1.956 0-3.66-1.722-5.528-5.583-1.304-2.696-2.41-5.857-3.218-8.166l-.326-.927H17.6c3.085 7.802 5.999 13.94 9.702 18.33 3.983 4.72 8.697 7.114 14.739 7.458.077-1.077.238-1.963.497-2.76.247-.762.552-1.344.82-1.859.955-1.807 2.154-2.412 2.993-2.601a3.49 3.49 0 01.77-.085c.723 0 1.633.219 2.635.967 1.24.926 2.13 2.027 2.99 3.092.98 1.212 1.827 2.26 3.038 2.878.385.196 1.706.423 2.398.412h.026z"/></symbol></svg>