<svg width="80" height="80" viewBox="0 0 80 80" fill="none" xmlns="http://www.w3.org/2000/svg">
<circle cx="40" cy="40" r="40" fill="#091921"/>
<g clip-path="url(#clip0)">
<path d="M61.9564 44.9463L61.9266 44.9186C61.457 44.4843 60.0186 43.0817 59.5335 42.4687C58.9641 41.7039 59.0954 41.2028 59.5222 40.4518C60.0614 39.5029 61.1419 38.0474 62.2853 36.506C65.9478 31.5709 68.3123 28.1545 67.8255 25.7277L67.5633 24.4315L54.0378 24.4374C53.9903 24.5652 53.2845 27.6718 50.3061 32.9618C48.1463 36.7974 46.7297 38.0024 46.2308 38.2151L46.1536 38.1916C45.9912 37.9906 45.7075 37.4482 45.5909 36.0503C45.4692 34.5859 45.577 32.8129 45.6815 31.0984C45.8036 29.0878 45.9089 27.3514 45.6567 26.109L45.2459 24.085C44.7495 24.0056 42.9322 23.303 37.8686 23.2496C33.4849 23.2047 32.1971 23.8391 31.5647 24.3983L29.4729 26.2478L32.1169 27.1391C33.1232 27.4784 33.4572 27.8698 33.7312 29.8101C33.91 31.0748 34.0035 33.2001 33.8105 35.0976C33.5331 37.8182 32.868 38.3244 32.8336 38.3513C32.7191 38.3122 31.7477 37.8863 30.0612 34.3139C28.8913 31.8362 27.8658 28.9054 27.1164 26.7653C26.2587 24.3146 26.4131 24.8364 25.9779 23.6785L12.8926 23.6781L13.7394 25.8727C17.2696 35.0311 20.5086 42.1832 24.8433 47.3201C29.6324 52.9956 35.5842 55.9673 43.6014 55.9673H45.2128V54.3528C45.2128 52.8434 45.3374 51.7566 45.6047 50.9325C45.7679 50.4305 45.9849 50.0155 46.2127 49.5804C46.5509 48.9396 46.8816 48.6651 47.062 48.6243C47.2257 48.5869 47.5135 48.7071 47.8324 48.9455C48.7481 49.6296 49.4748 50.5285 50.2444 51.4804C51.3547 52.8539 52.5028 54.2737 54.3243 55.2033C55.3197 55.7112 57.1442 55.9677 58.1483 55.9677C58.4139 55.9677 67.8809 55.9673 67.8927 55.9673L67.8234 54.2864C67.7202 51.773 65.7459 48.6302 61.9564 44.9463ZM58.2108 52.7383H58.1848C57.4925 52.7497 56.1711 52.5222 55.7867 52.3263C54.5757 51.7082 53.7293 50.6609 52.7487 49.4484C51.8881 48.3834 50.998 47.2823 49.7589 46.3569C48.7569 45.6081 47.8467 45.389 47.1241 45.389C46.8354 45.389 46.5761 45.4239 46.3537 45.4744C45.5149 45.6636 44.3152 46.2682 43.3614 48.0756C43.0924 48.5898 42.7874 49.1721 42.5402 49.934C42.2813 50.7311 42.1202 51.617 42.0434 52.6946C36.0018 52.3507 31.2873 49.9558 27.3043 45.2356C23.6012 40.8466 20.6878 34.7078 17.6024 26.9058C17.8256 26.9058 23.4195 26.9066 23.7498 26.9066C23.8509 27.1912 23.96 27.5032 24.0758 27.8337C24.8836 30.1423 25.9901 33.3036 27.2938 35.9994C29.1607 39.8599 30.8656 41.5816 32.8215 41.5816C33.7979 41.5816 34.6737 41.167 35.3539 40.3821C36.3236 39.2633 36.8867 37.4167 37.0756 34.7364C37.2245 32.6229 37.086 30.5177 36.9224 29.3578C36.7873 28.4034 36.5947 27.4015 36.1247 26.5038C38.1275 26.4134 40.8093 26.5564 42.5083 26.8007C42.6628 27.6432 42.5621 29.2993 42.4647 30.9016C42.2293 34.7722 41.9863 38.7663 44.0311 40.6352C44.3907 40.9639 44.7722 41.1401 44.7831 41.1473L45.8237 41.4672C46.2253 41.3432 48.5513 42.5254 52.9556 34.8243C54.3667 32.3567 55.6806 29.5133 56.388 27.6562C58.0287 27.6529 63.6185 27.6592 64.2752 27.66C63.3449 29.7113 61.1402 32.6372 59.6992 34.5792C58.4429 36.2719 57.3582 37.7337 56.7216 38.8538C55.5391 40.9345 55.738 42.7891 56.9696 44.425L56.9889 44.4502C57.6763 45.3268 59.3736 46.9497 59.7257 47.2768C62.2761 49.7578 63.5052 51.5401 64.0901 52.7379H58.2108V52.7383Z" fill="#00FFF1"/>
</g>
<defs>
<clipPath id="clip0">
<rect width="55" height="55" fill="white" transform="translate(13 12)"/>
</clipPath>
</defs>
</svg>
